<svg width="24" height="27" viewBox="0 0 24 27" fill="none" xmlns="http://www.w3.org/2000/svg">
<path d="M21.8055 11.518H21V11.4737H12V15.749H17.6515C16.827 18.2377 14.6115 20.0243 12 20.0243C8.6865 20.0243 6 17.1529 6 13.6113C6 10.0698 8.6865 7.19838 12 7.19838C13.5295 7.19838 14.921 7.81509 15.9805 8.82246L18.809 5.79928C17.023 4.02022 14.634 2.92307 12 2.92307C6.4775 2.92307 2 7.70874 2 13.6113C2 19.5139 6.4775 24.2996 12 24.2996C17.5225 24.2996 22 19.5139 22 13.6113C22 12.8947 21.931 12.1951 21.8055 11.518Z" fill="#FFC107"/>
<path d="M3.15302 8.63648L6.43851 11.2118C7.32751 8.85933 9.48052 7.19838 12 7.19838C13.5295 7.19838 14.921 7.81509 15.9805 8.82246L18.809 5.79928C17.023 4.02022 14.634 2.92307 12 2.92307C8.15902 2.92307 4.82802 5.24082 3.15302 8.63648Z" fill="#FF3D00"/>
<path d="M12 24.2996C14.583 24.2996 16.93 23.2431 18.7045 21.5249L15.6095 18.7257C14.6055 19.5385 13.3575 20.0243 12 20.0243C9.399 20.0243 7.1905 18.2516 6.3585 15.7778L3.0975 18.4633C4.7525 21.9247 8.1135 24.2996 12 24.2996Z" fill="#4CAF50"/>
<path d="M21.8055 11.518H21V11.4737H12V15.749H17.6515C17.2555 16.9445 16.536 17.9753 15.608 18.7262L15.6095 18.7251L18.7045 21.5244C18.4855 21.7371 22 18.9555 22 13.6113C22 12.8947 21.931 12.1951 21.8055 11.518Z" fill="#1976D2"/>
</svg>
